<?xml version="1.0" encoding="utf-8"?>
<svg version="1.1" xmlns="http://www.w3.org/2000/svg" viewBox="0 0 14 14">
<style type="text/css">
	.st0{opacity:0.4;enable-background:new    ;}
	.st1{fill:#FFFFFF;enable-background:new    ;}
	.st2{display:none;}
	.st3{display:inline;fill:#00170C;enable-background:new    ;}
</style>
<g id="unclicked">
	<path class="st0" d="M9.3,12.1C9.1,13.2,8.1,14,7,14s-2.1-0.8-2.3-1.9H0.5l1.9-3.7V4.7C2.4,2.1,4.4,0,7,0c2.6,0,4.6,2.1,4.6,4.7
		v3.7l1.9,3.7H9.3z M7,13.1c0.6,0,1.1-0.4,1.3-0.9H5.7C5.9,12.7,6.4,13.1,7,13.1z M10.7,8.4V4.7c0-2.1-1.7-3.7-3.7-3.7
		c-2.1,0-3.7,1.7-3.7,3.7v3.7l-1.4,2.8h10.2L10.7,8.4z"/>
	<path class="st1" d="M10.7,8.4V4.7c0-2.1-1.7-3.7-3.7-3.7c-2.1,0-3.7,1.7-3.7,3.7v3.7l-1.4,2.8h10.2L10.7,8.4z"/>
	<path class="st1" d="M7,13.1c0.6,0,1.1-0.4,1.3-0.9H5.7C5.9,12.7,6.4,13.1,7,13.1z"/>
	
	<animate id="likey" attributeName="display" values="none" dur=".8s" begin="unclicked.click"/>
	<animate id="unlike" attributeName="display" values="block" dur=".8s" begin="clicked.click"/>
</g>
<g id="clicked" class="st2">
	<path class="st3" d="M11.6,8.4V4.7C11.6,2.1,9.6,0,7,0C4.4,0,2.4,2.1,2.4,4.7v3.7l-1.9,3.7h4.2C4.9,13.2,5.9,14,7,14
		c1.1,0,2.1-0.8,2.3-1.9h4.2L11.6,8.4z M7,13.1c-0.6,0-1.1-0.4-1.3-0.9h2.6C8.1,12.7,7.6,13.1,7,13.1z"/>
	
	<animate id="like" attributeName="display" values="block" dur=".8s" begin="unclicked.click"/>
	<animate id="unlike" attributeName="display" values="none" dur=".8s" begin="clicked.click"/>
</g>
</svg>
